<?xml version="1.0" standalone="no"?>
<!DOCTYPE svg PUBLIC "-//W3C//DTD SVG 20010904//EN"
 "http://www.w3.org/TR/2001/REC-SVG-20010904/DTD/svg10.dtd">
<svg version="1.0" xmlns="http://www.w3.org/2000/svg"
 width="331.000000pt" height="331.000000pt" viewBox="0 0 331.000000 331.000000"
 preserveAspectRatio="xMidYMid meet">
<metadata>
Created by potrace 1.14, written by Peter Selinger 2001-2017
</metadata>
<g transform="translate(0.000000,331.000000) scale(0.100000,-0.100000)"
fill="#000000" stroke="none">
<path d="M50 1670 l0 -1190 198 2 197 3 2 775 c1 426 2 793 3 815 l0 40 33
-36 c17 -20 52 -60 77 -89 39 -46 190 -223 257 -300 12 -14 32 -36 43 -50 12
-14 43 -49 68 -79 26 -30 67 -77 91 -105 46 -54 51 -60 150 -176 35 -41 67
-77 70 -80 3 -3 31 -34 61 -70 30 -36 67 -78 81 -95 15 -16 69 -79 120 -140
52 -60 102 -119 112 -130 10 -11 69 -80 130 -152 l112 -133 185 3 185 2 0 298
c-1 163 0 297 2 297 2 0 205 -234 333 -385 24 -27 67 -77 96 -110 29 -33 61
-70 72 -82 19 -23 22 -23 282 -23 l262 0 -48 58 c-27 31 -53 62 -59 68 -20 22
-104 120 -175 204 -40 47 -87 101 -104 120 -17 19 -44 51 -60 70 -16 19 -54
64 -86 100 -106 121 -270 315 -270 321 0 3 26 5 58 4 31 0 62 2 67 4 6 3 17 6
25 6 90 5 224 58 315 125 142 105 235 242 282 414 21 81 21 250 -1 336 -70
276 -289 483 -567 537 -45 9 -1939 15 -1939 6 0 -3 24 -34 53 -67 86 -101 102
-118 112 -130 6 -6 37 -43 70 -81 33 -39 64 -75 70 -81 5 -6 28 -33 50 -59 22
-26 49 -58 60 -70 11 -13 29 -34 40 -46 11 -13 103 -121 205 -239 102 -118
194 -226 205 -239 11 -13 25 -29 30 -35 6 -6 37 -43 70 -81 33 -39 68 -79 79
-90 10 -11 30 -35 45 -54 l26 -34 0 -204 c0 -112 -2 -203 -5 -203 -3 0 -21 19
-41 43 -98 115 -354 413 -364 423 -5 6 -21 24 -34 40 -60 72 -136 160 -145
169 -6 6 -31 35 -56 65 -25 30 -49 60 -55 66 -5 6 -32 37 -60 69 -27 32 -55
63 -60 69 -6 6 -36 40 -66 76 -72 85 -102 120 -114 134 -6 6 -82 94 -169 196
-87 102 -170 199 -185 215 -14 17 -50 58 -80 93 l-53 62 -144 0 -144 0 0
-1190z m2600 759 c211 -99 249 -378 72 -530 -74 -64 -119 -73 -374 -75 l-227
-3 -58 67 c-32 37 -62 72 -68 78 -5 6 -30 35 -54 64 -25 29 -50 58 -55 64 -11
11 -174 200 -211 245 -11 13 -37 42 -57 65 -21 22 -38 45 -38 49 0 4 228 6
508 5 l507 -3 55 -26z"/>
</g>
</svg>
